<mxfile host="www.draw.io" modified="2020-03-03T04:04:39.470Z" agent="Mozilla/5.0 (X11; Linux x86_64) AppleWebKit/537.36 (KHTML, like Gecko) Chrome/79.0.3945.88 Safari/537.36" etag="sdPQN1JhxaMG9Ee3g0vA" version="12.7.9" type="github">
  <diagram id="trLABKYxzTwC_gnRw9M-" name="Page-1">
    <mxGraphModel dx="1355" dy="774" grid="1" gridSize="10" guides="1" tooltips="1" connect="1" arrows="1" fold="1" page="1" pageScale="1" pageWidth="827" pageHeight="1169" math="0" shadow="0">
      <root>
        <mxCell id="0" />
        <mxCell id="1" parent="0" />
        <mxCell id="XX7ekyzCBeAfx8MiRkCw-1" value="Component" style="swimlane;fontStyle=1;align=center;verticalAlign=top;childLayout=stackLayout;horizontal=1;startSize=26;horizontalStack=0;resizeParent=1;resizeParentMax=0;resizeLast=0;collapsible=1;marginBottom=0;" parent="1" vertex="1">
          <mxGeometry x="330" y="40" width="210" height="90" as="geometry" />
        </mxCell>
        <mxCell id="XX7ekyzCBeAfx8MiRkCw-2" value="- name: String" style="text;strokeColor=none;fillColor=none;align=left;verticalAlign=top;spacingLeft=4;spacingRight=4;overflow=hidden;rotatable=0;points=[[0,0.5],[1,0.5]];portConstraint=eastwest;" parent="XX7ekyzCBeAfx8MiRkCw-1" vertex="1">
          <mxGeometry y="26" width="210" height="26" as="geometry" />
        </mxCell>
        <mxCell id="XX7ekyzCBeAfx8MiRkCw-3" value="" style="line;strokeWidth=1;fillColor=none;align=left;verticalAlign=middle;spacingTop=-1;spacingLeft=3;spacingRight=3;rotatable=0;labelPosition=right;points=[];portConstraint=eastwest;" parent="XX7ekyzCBeAfx8MiRkCw-1" vertex="1">
          <mxGeometry y="52" width="210" height="8" as="geometry" />
        </mxCell>
        <mxCell id="XX7ekyzCBeAfx8MiRkCw-4" value="+ search(productName: String): Int" style="text;strokeColor=none;fillColor=none;align=left;verticalAlign=top;spacingLeft=4;spacingRight=4;overflow=hidden;rotatable=0;points=[[0,0.5],[1,0.5]];portConstraint=eastwest;" parent="XX7ekyzCBeAfx8MiRkCw-1" vertex="1">
          <mxGeometry y="60" width="210" height="30" as="geometry" />
        </mxCell>
        <mxCell id="XX7ekyzCBeAfx8MiRkCw-28" style="edgeStyle=orthogonalEdgeStyle;rounded=0;orthogonalLoop=1;jettySize=auto;html=1;" parent="1" source="XX7ekyzCBeAfx8MiRkCw-10" edge="1">
          <mxGeometry relative="1" as="geometry">
            <mxPoint x="185" y="200" as="targetPoint" />
          </mxGeometry>
        </mxCell>
        <mxCell id="XX7ekyzCBeAfx8MiRkCw-10" value="Product" style="swimlane;fontStyle=1;align=center;verticalAlign=top;childLayout=stackLayout;horizontal=1;startSize=26;horizontalStack=0;resizeParent=1;resizeParentMax=0;resizeLast=0;collapsible=1;marginBottom=0;" parent="1" vertex="1">
          <mxGeometry x="80" y="240" width="210" height="94" as="geometry" />
        </mxCell>
        <mxCell id="XX7ekyzCBeAfx8MiRkCw-11" value="+ name: String&#xa;+ price: Int" style="text;strokeColor=none;fillColor=none;align=left;verticalAlign=top;spacingLeft=4;spacingRight=4;overflow=hidden;rotatable=0;points=[[0,0.5],[1,0.5]];portConstraint=eastwest;" parent="XX7ekyzCBeAfx8MiRkCw-10" vertex="1">
          <mxGeometry y="26" width="210" height="34" as="geometry" />
        </mxCell>
        <mxCell id="XX7ekyzCBeAfx8MiRkCw-12" value="" style="line;strokeWidth=1;fillColor=none;align=left;verticalAlign=middle;spacingTop=-1;spacingLeft=3;spacingRight=3;rotatable=0;labelPosition=right;points=[];portConstraint=eastwest;" parent="XX7ekyzCBeAfx8MiRkCw-10" vertex="1">
          <mxGeometry y="60" width="210" height="8" as="geometry" />
        </mxCell>
        <mxCell id="XX7ekyzCBeAfx8MiRkCw-13" value="+ search(productName: String): Int" style="text;strokeColor=none;fillColor=none;align=left;verticalAlign=top;spacingLeft=4;spacingRight=4;overflow=hidden;rotatable=0;points=[[0,0.5],[1,0.5]];portConstraint=eastwest;" parent="XX7ekyzCBeAfx8MiRkCw-10" vertex="1">
          <mxGeometry y="68" width="210" height="26" as="geometry" />
        </mxCell>
        <mxCell id="XX7ekyzCBeAfx8MiRkCw-14" value="Rack" style="swimlane;fontStyle=1;align=center;verticalAlign=top;childLayout=stackLayout;horizontal=1;startSize=26;horizontalStack=0;resizeParent=1;resizeParentMax=0;resizeLast=0;collapsible=1;marginBottom=0;" parent="1" vertex="1">
          <mxGeometry x="320" y="240" width="210" height="94" as="geometry" />
        </mxCell>
        <mxCell id="XX7ekyzCBeAfx8MiRkCw-15" value="+ name: String&#xa;+ productList: Seq[Component]" style="text;strokeColor=none;fillColor=none;align=left;verticalAlign=top;spacingLeft=4;spacingRight=4;overflow=hidden;rotatable=0;points=[[0,0.5],[1,0.5]];portConstraint=eastwest;" parent="XX7ekyzCBeAfx8MiRkCw-14" vertex="1">
          <mxGeometry y="26" width="210" height="34" as="geometry" />
        </mxCell>
        <mxCell id="XX7ekyzCBeAfx8MiRkCw-16" value="" style="line;strokeWidth=1;fillColor=none;align=left;verticalAlign=middle;spacingTop=-1;spacingLeft=3;spacingRight=3;rotatable=0;labelPosition=right;points=[];portConstraint=eastwest;" parent="XX7ekyzCBeAfx8MiRkCw-14" vertex="1">
          <mxGeometry y="60" width="210" height="8" as="geometry" />
        </mxCell>
        <mxCell id="XX7ekyzCBeAfx8MiRkCw-17" value="+ search(productName: String): Int" style="text;strokeColor=none;fillColor=none;align=left;verticalAlign=top;spacingLeft=4;spacingRight=4;overflow=hidden;rotatable=0;points=[[0,0.5],[1,0.5]];portConstraint=eastwest;" parent="XX7ekyzCBeAfx8MiRkCw-14" vertex="1">
          <mxGeometry y="68" width="210" height="26" as="geometry" />
        </mxCell>
        <mxCell id="XX7ekyzCBeAfx8MiRkCw-18" value="Warehouse" style="swimlane;fontStyle=1;align=center;verticalAlign=top;childLayout=stackLayout;horizontal=1;startSize=26;horizontalStack=0;resizeParent=1;resizeParentMax=0;resizeLast=0;collapsible=1;marginBottom=0;" parent="1" vertex="1">
          <mxGeometry x="560" y="240" width="210" height="94" as="geometry" />
        </mxCell>
        <mxCell id="XX7ekyzCBeAfx8MiRkCw-19" value="+ name: String&#xa;+ rackList: Seq[Component]" style="text;strokeColor=none;fillColor=none;align=left;verticalAlign=top;spacingLeft=4;spacingRight=4;overflow=hidden;rotatable=0;points=[[0,0.5],[1,0.5]];portConstraint=eastwest;" parent="XX7ekyzCBeAfx8MiRkCw-18" vertex="1">
          <mxGeometry y="26" width="210" height="34" as="geometry" />
        </mxCell>
        <mxCell id="XX7ekyzCBeAfx8MiRkCw-20" value="" style="line;strokeWidth=1;fillColor=none;align=left;verticalAlign=middle;spacingTop=-1;spacingLeft=3;spacingRight=3;rotatable=0;labelPosition=right;points=[];portConstraint=eastwest;" parent="XX7ekyzCBeAfx8MiRkCw-18" vertex="1">
          <mxGeometry y="60" width="210" height="8" as="geometry" />
        </mxCell>
        <mxCell id="XX7ekyzCBeAfx8MiRkCw-21" value="+ search(productName: String): Int" style="text;strokeColor=none;fillColor=none;align=left;verticalAlign=top;spacingLeft=4;spacingRight=4;overflow=hidden;rotatable=0;points=[[0,0.5],[1,0.5]];portConstraint=eastwest;" parent="XX7ekyzCBeAfx8MiRkCw-18" vertex="1">
          <mxGeometry y="68" width="210" height="26" as="geometry" />
        </mxCell>
        <mxCell id="XX7ekyzCBeAfx8MiRkCw-22" value="Extends" style="endArrow=block;endSize=16;endFill=0;html=1;" parent="1" source="XX7ekyzCBeAfx8MiRkCw-14" edge="1">
          <mxGeometry width="160" relative="1" as="geometry">
            <mxPoint x="330" y="400" as="sourcePoint" />
            <mxPoint x="420" y="132" as="targetPoint" />
          </mxGeometry>
        </mxCell>
        <mxCell id="XX7ekyzCBeAfx8MiRkCw-25" value="" style="endArrow=none;html=1;edgeStyle=orthogonalEdgeStyle;exitX=0.5;exitY=0;exitDx=0;exitDy=0;entryX=0.571;entryY=0;entryDx=0;entryDy=0;entryPerimeter=0;" parent="1" source="XX7ekyzCBeAfx8MiRkCw-10" target="XX7ekyzCBeAfx8MiRkCw-18" edge="1">
          <mxGeometry relative="1" as="geometry">
            <mxPoint x="200" y="190" as="sourcePoint" />
            <mxPoint x="680" y="180" as="targetPoint" />
            <Array as="points">
              <mxPoint x="185" y="200" />
              <mxPoint x="680" y="200" />
            </Array>
          </mxGeometry>
        </mxCell>
      </root>
    </mxGraphModel>
  </diagram>
</mxfile>
